<mxfile host="app.diagrams.net" modified="2023-07-11T17:24:22.160Z" agent="Mozilla/5.0 (Windows NT 10.0; Win64; x64) AppleWebKit/537.36 (KHTML, like Gecko) Chrome/114.0.0.0 Safari/537.36" etag="HjyXnYmpSjh7yKT8f4NB" version="21.6.1" type="github">
  <diagram name="Page-1" id="aliSSgkSCoFzk6rWZGfW">
    <mxGraphModel dx="1434" dy="788" grid="1" gridSize="10" guides="1" tooltips="1" connect="1" arrows="1" fold="1" page="1" pageScale="1" pageWidth="850" pageHeight="1100" math="0" shadow="0">
      <root>
        <mxCell id="0" />
        <mxCell id="1" parent="0" />
        <mxCell id="8ZECzGu-Z_w1lb4RtnmZ-3" value="" style="edgeStyle=orthogonalEdgeStyle;rounded=0;orthogonalLoop=1;jettySize=auto;html=1;" edge="1" parent="1" source="8ZECzGu-Z_w1lb4RtnmZ-1" target="8ZECzGu-Z_w1lb4RtnmZ-2">
          <mxGeometry relative="1" as="geometry" />
        </mxCell>
        <mxCell id="8ZECzGu-Z_w1lb4RtnmZ-1" value="START" style="strokeWidth=2;html=1;shape=mxgraph.flowchart.start_1;whiteSpace=wrap;" vertex="1" parent="1">
          <mxGeometry x="375" y="20" width="100" height="60" as="geometry" />
        </mxCell>
        <mxCell id="8ZECzGu-Z_w1lb4RtnmZ-5" value="" style="edgeStyle=orthogonalEdgeStyle;rounded=0;orthogonalLoop=1;jettySize=auto;html=1;" edge="1" parent="1" source="8ZECzGu-Z_w1lb4RtnmZ-2" target="8ZECzGu-Z_w1lb4RtnmZ-4">
          <mxGeometry relative="1" as="geometry" />
        </mxCell>
        <mxCell id="8ZECzGu-Z_w1lb4RtnmZ-2" value="INPUTS" style="shape=parallelogram;perimeter=parallelogramPerimeter;whiteSpace=wrap;html=1;fixedSize=1;strokeWidth=2;" vertex="1" parent="1">
          <mxGeometry x="365" y="100" width="120" height="60" as="geometry" />
        </mxCell>
        <mxCell id="8ZECzGu-Z_w1lb4RtnmZ-9" value="" style="edgeStyle=orthogonalEdgeStyle;rounded=0;orthogonalLoop=1;jettySize=auto;html=1;" edge="1" parent="1" source="8ZECzGu-Z_w1lb4RtnmZ-4" target="8ZECzGu-Z_w1lb4RtnmZ-8">
          <mxGeometry relative="1" as="geometry" />
        </mxCell>
        <mxCell id="8ZECzGu-Z_w1lb4RtnmZ-4" value="STORE INPUTS IN VARIABLES &lt;b&gt;X,Y, Z&lt;/b&gt;" style="whiteSpace=wrap;html=1;strokeWidth=2;" vertex="1" parent="1">
          <mxGeometry x="365" y="190" width="120" height="60" as="geometry" />
        </mxCell>
        <mxCell id="8ZECzGu-Z_w1lb4RtnmZ-10" style="rounded=0;orthogonalLoop=1;jettySize=auto;html=1;exitX=0;exitY=0.5;exitDx=0;exitDy=0;edgeStyle=elbowEdgeStyle;entryX=0.058;entryY=0.4;entryDx=0;entryDy=0;entryPerimeter=0;elbow=vertical;" edge="1" parent="1" source="8ZECzGu-Z_w1lb4RtnmZ-8" target="8ZECzGu-Z_w1lb4RtnmZ-2">
          <mxGeometry relative="1" as="geometry">
            <mxPoint x="270" y="130" as="targetPoint" />
            <mxPoint x="300" y="343.98" as="sourcePoint" />
            <Array as="points">
              <mxPoint x="240" y="230" />
            </Array>
          </mxGeometry>
        </mxCell>
        <mxCell id="8ZECzGu-Z_w1lb4RtnmZ-11" value="&lt;font style=&quot;font-size: 12px;&quot;&gt;NO&lt;/font&gt;" style="edgeLabel;html=1;align=center;verticalAlign=middle;resizable=0;points=[];" vertex="1" connectable="0" parent="8ZECzGu-Z_w1lb4RtnmZ-10">
          <mxGeometry x="-0.7759" y="-1" relative="1" as="geometry">
            <mxPoint as="offset" />
          </mxGeometry>
        </mxCell>
        <mxCell id="8ZECzGu-Z_w1lb4RtnmZ-13" value="" style="edgeStyle=orthogonalEdgeStyle;rounded=0;orthogonalLoop=1;jettySize=auto;html=1;" edge="1" parent="1" source="8ZECzGu-Z_w1lb4RtnmZ-8" target="8ZECzGu-Z_w1lb4RtnmZ-12">
          <mxGeometry relative="1" as="geometry" />
        </mxCell>
        <mxCell id="8ZECzGu-Z_w1lb4RtnmZ-22" value="YES" style="edgeLabel;html=1;align=center;verticalAlign=middle;resizable=0;points=[];" vertex="1" connectable="0" parent="8ZECzGu-Z_w1lb4RtnmZ-13">
          <mxGeometry x="-0.4" relative="1" as="geometry">
            <mxPoint as="offset" />
          </mxGeometry>
        </mxCell>
        <mxCell id="8ZECzGu-Z_w1lb4RtnmZ-8" value="ARE THEY NUMBERS?" style="rhombus;whiteSpace=wrap;html=1;strokeWidth=2;" vertex="1" parent="1">
          <mxGeometry x="373" y="290" width="105" height="120" as="geometry" />
        </mxCell>
        <mxCell id="8ZECzGu-Z_w1lb4RtnmZ-15" value="" style="edgeStyle=orthogonalEdgeStyle;rounded=0;orthogonalLoop=1;jettySize=auto;html=1;" edge="1" parent="1" source="8ZECzGu-Z_w1lb4RtnmZ-12" target="8ZECzGu-Z_w1lb4RtnmZ-14">
          <mxGeometry relative="1" as="geometry" />
        </mxCell>
        <mxCell id="8ZECzGu-Z_w1lb4RtnmZ-12" value="COMPARE INPUTS" style="whiteSpace=wrap;html=1;strokeWidth=2;" vertex="1" parent="1">
          <mxGeometry x="365.5" y="450" width="120" height="60" as="geometry" />
        </mxCell>
        <mxCell id="8ZECzGu-Z_w1lb4RtnmZ-17" value="" style="edgeStyle=orthogonalEdgeStyle;rounded=0;orthogonalLoop=1;jettySize=auto;html=1;" edge="1" parent="1" source="8ZECzGu-Z_w1lb4RtnmZ-14" target="8ZECzGu-Z_w1lb4RtnmZ-16">
          <mxGeometry relative="1" as="geometry" />
        </mxCell>
        <mxCell id="8ZECzGu-Z_w1lb4RtnmZ-21" value="NO" style="edgeLabel;html=1;align=center;verticalAlign=middle;resizable=0;points=[];" vertex="1" connectable="0" parent="8ZECzGu-Z_w1lb4RtnmZ-17">
          <mxGeometry x="-0.0625" y="1" relative="1" as="geometry">
            <mxPoint x="1" as="offset" />
          </mxGeometry>
        </mxCell>
        <mxCell id="8ZECzGu-Z_w1lb4RtnmZ-19" value="" style="edgeStyle=orthogonalEdgeStyle;rounded=0;orthogonalLoop=1;jettySize=auto;html=1;" edge="1" parent="1" source="8ZECzGu-Z_w1lb4RtnmZ-14" target="8ZECzGu-Z_w1lb4RtnmZ-18">
          <mxGeometry relative="1" as="geometry" />
        </mxCell>
        <mxCell id="8ZECzGu-Z_w1lb4RtnmZ-20" value="YES" style="edgeLabel;html=1;align=center;verticalAlign=middle;resizable=0;points=[];" vertex="1" connectable="0" parent="8ZECzGu-Z_w1lb4RtnmZ-19">
          <mxGeometry x="0.1625" y="1" relative="1" as="geometry">
            <mxPoint as="offset" />
          </mxGeometry>
        </mxCell>
        <mxCell id="8ZECzGu-Z_w1lb4RtnmZ-14" value="X &amp;gt; Y" style="rhombus;whiteSpace=wrap;html=1;strokeWidth=2;" vertex="1" parent="1">
          <mxGeometry x="385.5" y="540" width="80" height="80" as="geometry" />
        </mxCell>
        <mxCell id="8ZECzGu-Z_w1lb4RtnmZ-16" value="Y &amp;gt; Z" style="rhombus;whiteSpace=wrap;html=1;strokeWidth=2;" vertex="1" parent="1">
          <mxGeometry x="225.5" y="540" width="80" height="80" as="geometry" />
        </mxCell>
        <mxCell id="8ZECzGu-Z_w1lb4RtnmZ-18" value="X &amp;gt; Z" style="rhombus;whiteSpace=wrap;html=1;strokeWidth=2;" vertex="1" parent="1">
          <mxGeometry x="545.5" y="540" width="80" height="80" as="geometry" />
        </mxCell>
      </root>
    </mxGraphModel>
  </diagram>
</mxfile>
